<mxfile host="app.diagrams.net" modified="2021-11-16T16:08:00.781Z" agent="5.0 (Windows NT 10.0; Win64; x64) AppleWebKit/537.36 (KHTML, like Gecko) Chrome/92.0.4515.159 Safari/537.36 Edg/92.0.902.84" etag="QXWGtCZhOpNac7gbwdaS" version="15.7.0" type="github" pages="2">
  <diagram id="3228e29e-7158-1315-38df-8450db1d8a1d" name="Page-1">
    <mxGraphModel dx="1422" dy="772" grid="1" gridSize="10" guides="1" tooltips="1" connect="1" arrows="1" fold="1" page="1" pageScale="1" pageWidth="1169" pageHeight="827" background="none" math="0" shadow="0">
      <root>
        <mxCell id="0" />
        <mxCell id="1" parent="0" />
        <mxCell id="21541" value="" style="ellipse;whiteSpace=wrap;rotation=-30;fillColor=#F08705;opacity=60;strokeColor=none;html=1;" parent="1" vertex="1">
          <mxGeometry x="139.82" y="173.78" width="545.56" height="338.33" as="geometry" />
        </mxCell>
        <mxCell id="21542" value="" style="ellipse;whiteSpace=wrap;rotation=135;fillColor=#E85642;opacity=60;strokeColor=none;html=1;" parent="1" vertex="1">
          <mxGeometry x="629.64" y="193.32" width="195.8" height="326.92" as="geometry" />
        </mxCell>
        <mxCell id="21543" value="" style="ellipse;whiteSpace=wrap;fillColor=#2F5B7C;opacity=60;strokeColor=none;html=1;" parent="1" vertex="1">
          <mxGeometry x="404.28" y="147.02" width="212.88" height="140" as="geometry" />
        </mxCell>
        <mxCell id="21544" value="" style="ellipse;whiteSpace=wrap;fillColor=#12AAB5;opacity=60;strokeColor=none;rotation=15;html=1;" parent="1" vertex="1">
          <mxGeometry x="251.81" y="398.46" width="537.84" height="204.13" as="geometry" />
        </mxCell>
        <mxCell id="21545" value="&#xa;&#xa;&#xa;&#xa;&#xa;&#xa;&#xa;&#xa;&#xa;&#xa;&#xa;&lt;p style=&quot;line-height: normal ; margin-top: 0pt ; margin-bottom: 0pt ; margin-right: 0in ; text-align: center ; direction: ltr ; unicode-bidi: embed&quot;&gt;&lt;span style=&quot;font-size: 10.5pt ; font-family: &amp;quot;arial&amp;quot; ; font-variant: normal ; color: black ; text-transform: none ; font-weight: normal ; font-style: normal&quot;&gt;Atelier&#xa;BAPI&lt;/span&gt;&lt;/p&gt;&#xa;&#xa;&#xa;&#xa;&#xa;&#xa;" style="ellipse;whiteSpace=wrap;rotation=-40;fillColor=#736CA8;opacity=60;strokeColor=none;html=1;" parent="1" vertex="1">
          <mxGeometry x="465.26" y="424.34" width="425.58" height="280.16" as="geometry" />
        </mxCell>
        <mxCell id="21546" value="Iprox" style="text;spacingTop=-5;fontStyle=0;fontSize=14;html=1;fontColor=#FFFFFF;" parent="1" vertex="1">
          <mxGeometry x="420" y="327.61770608387354" width="30" height="20" as="geometry" />
        </mxCell>
        <mxCell id="21551" value="&lt;p style=&quot;line-height: normal ; margin-top: 0pt ; margin-bottom: 0pt ; margin-right: 0in ; text-align: center ; direction: ltr ; unicode-bidi: embed&quot;&gt;&lt;span style=&quot;font-size: 10.5pt; font-family: arial;&quot;&gt;Atelier&lt;br&gt;MyWay V1 Front&lt;/span&gt;&lt;/p&gt;" style="text;spacingTop=-5;fontStyle=0;fontSize=14;html=1;fontColor=#FFFFFF;" parent="1" vertex="1">
          <mxGeometry x="470" y="213.08" width="90" height="20" as="geometry" />
        </mxCell>
        <mxCell id="21555" value="&lt;p style=&quot;line-height: normal ; margin-top: 0pt ; margin-bottom: 0pt ; margin-right: 0in ; text-align: center ; direction: ltr ; unicode-bidi: embed&quot;&gt;&lt;span style=&quot;font-size: 10.5pt ; font-family: &amp;#34;arial&amp;#34; ; color: black&quot;&gt;Atelier&lt;br/&gt;PMM&lt;/span&gt;&lt;/p&gt;" style="text;spacingTop=-5;fontStyle=0;fontSize=14;html=1;fontColor=#FFFFFF;" parent="1" vertex="1">
          <mxGeometry x="693.3599163537604" y="394.00034797028496" width="30" height="20" as="geometry" />
        </mxCell>
        <mxCell id="21560" value="TFVC" style="ellipse;whiteSpace=wrap;rotation=0;fillColor=#f08705;opacity=60;strokeColor=none;html=1;gradientColor=none;fontSize=15;fontColor=#FFFFFF;" parent="1" vertex="1">
          <mxGeometry x="125.00000000000006" y="157.534724710808" width="39.99999999999994" height="41.86876774444315" as="geometry" />
        </mxCell>
        <mxCell id="21561" value="TFS-VNext" style="ellipse;whiteSpace=wrap;rotation=0;fillColor=#e85642;opacity=60;strokeColor=none;html=1;fontSize=15;fontColor=#FFFFFF;" parent="1" vertex="1">
          <mxGeometry x="30" y="233.08000000000004" width="49.5" height="46.52" as="geometry" />
        </mxCell>
        <mxCell id="21562" value="TFS-xaml" style="ellipse;whiteSpace=wrap;fillColor=#2f5b7c;opacity=60;strokeColor=none;html=1;fontSize=15;fontColor=#FFFFFF;" parent="1" vertex="1">
          <mxGeometry x="90" y="233.07999999999998" width="69.5" height="53.94" as="geometry" />
        </mxCell>
        <mxCell id="21563" value="Jenkins" style="ellipse;whiteSpace=wrap;fillColor=#12aab5;opacity=60;strokeColor=none;html=1;fontSize=15;fontColor=#FFFFFF;" parent="1" vertex="1">
          <mxGeometry x="50.25" y="287.02" width="59.5" height="44.61" as="geometry" />
        </mxCell>
        <mxCell id="21564" value="GIT" style="ellipse;whiteSpace=wrap;rotation=0;fillColor=#736ca8;opacity=60;strokeColor=none;html=1;fontSize=15;fontColor=#FFFFFF;" parent="1" vertex="1">
          <mxGeometry x="60.00000000000006" y="160.2030085360933" width="39.99999999999994" height="39.20171617471459" as="geometry" />
        </mxCell>
        <mxCell id="2vBMD3IRPxABuUppxNbn-21566" value="&lt;p style=&quot;line-height: normal ; margin-top: 0pt ; margin-bottom: 0pt ; margin-right: 0in ; text-align: center ; direction: ltr ; unicode-bidi: embed&quot;&gt;&lt;span style=&quot;font-size: 10.5pt ; font-family: &amp;#34;arial&amp;#34; ; color: black&quot;&gt;Atelier&lt;br/&gt;MyWay V1 Back&lt;/span&gt;&lt;/p&gt;" style="text;spacingTop=-5;fontStyle=0;fontSize=14;html=1;fontColor=#FFFFFF;" vertex="1" parent="1">
          <mxGeometry x="320" y="394" width="90" height="20" as="geometry" />
        </mxCell>
        <mxCell id="2vBMD3IRPxABuUppxNbn-21567" value="&lt;p style=&quot;line-height: normal ; margin-top: 0pt ; margin-bottom: 0pt ; margin-right: 0in ; text-align: center ; direction: ltr ; unicode-bidi: embed&quot;&gt;&lt;span style=&quot;font-size: 10.5pt ; font-family: &amp;quot;arial&amp;quot; ; font-variant: normal ; color: black ; text-transform: none ; font-weight: normal ; font-style: normal&quot;&gt;Atelier&#xa;MyWay V2 Front&lt;/span&gt;&lt;/p&gt;" style="text;whiteSpace=wrap;html=1;fontColor=#FFFFFF;" vertex="1" parent="1">
          <mxGeometry x="563.36" y="480" width="130" height="50" as="geometry" />
        </mxCell>
        <mxCell id="2vBMD3IRPxABuUppxNbn-21569" value="&lt;p style=&quot;line-height: normal ; margin-top: 0pt ; margin-bottom: 0pt ; margin-right: 0in ; text-align: center ; direction: ltr ; unicode-bidi: embed&quot;&gt;&lt;span style=&quot;font-size: 10.5pt ; font-family: &amp;quot;arial&amp;quot; ; font-variant: normal ; color: black ; text-transform: none ; font-weight: normal ; font-style: normal&quot;&gt;BAD&#xa;(.Net)&lt;/span&gt;&lt;/p&gt;" style="text;whiteSpace=wrap;html=1;fontColor=#FFFFFF;" vertex="1" parent="1">
          <mxGeometry x="598.36" y="269.67" width="60" height="50" as="geometry" />
        </mxCell>
        <mxCell id="2vBMD3IRPxABuUppxNbn-21570" value="&lt;p style=&quot;line-height: normal ; margin-top: 0pt ; margin-bottom: 0pt ; margin-right: 0in ; text-align: center ; direction: ltr ; unicode-bidi: embed&quot;&gt;&lt;span style=&quot;font-size: 10.5pt ; font-family: &amp;quot;arial&amp;quot; ; font-variant: normal ; color: black ; text-transform: none ; font-weight: normal ; font-style: normal&quot;&gt;CENET&#xa;(.Net)&lt;/span&gt;&lt;/p&gt;" style="text;whiteSpace=wrap;html=1;fontColor=#FFFFFF;" vertex="1" parent="1">
          <mxGeometry x="755.44" y="414" width="70" height="50" as="geometry" />
        </mxCell>
        <mxCell id="2vBMD3IRPxABuUppxNbn-21571" value="&lt;span style=&quot;font-size: 10.5pt ; font-family: &amp;quot;arial&amp;quot; ; font-variant: normal ; color: #9176b4 ; text-transform: none ; font-weight: normal ; font-style: normal&quot;&gt;Mobile&lt;/span&gt;" style="text;whiteSpace=wrap;html=1;fontColor=#FFFFFF;" vertex="1" parent="1">
          <mxGeometry x="930" y="660" width="70" height="30" as="geometry" />
        </mxCell>
        <mxCell id="2vBMD3IRPxABuUppxNbn-21572" value="&lt;p style=&quot;line-height: normal ; margin-top: 0pt ; margin-bottom: 0pt ; margin-right: 0in ; text-align: center ; direction: ltr ; unicode-bidi: embed&quot;&gt;&lt;span style=&quot;font-size: 10.5pt ; font-family: &amp;quot;arial&amp;quot; ; font-variant: normal ; color: black ; text-transform: none ; font-weight: normal ; font-style: normal&quot;&gt;Divers&#xa;Open non .Net&lt;/span&gt;&lt;/p&gt;" style="text;whiteSpace=wrap;html=1;fontColor=#FFFFFF;" vertex="1" parent="1">
          <mxGeometry x="522.88" y="550" width="100" height="40" as="geometry" />
        </mxCell>
        <mxCell id="2vBMD3IRPxABuUppxNbn-21573" value="&lt;p style=&quot;line-height: normal ; margin-top: 0pt ; margin-bottom: 0pt ; margin-right: 0in ; text-align: center ; direction: ltr ; unicode-bidi: embed&quot;&gt;&lt;span style=&quot;font-size: 10.5pt ; font-family: &amp;quot;arial&amp;quot; ; font-variant: normal ; color: black ; text-transform: none ; font-weight: normal ; font-style: normal&quot;&gt;Divers&#xa;Open non .Net&lt;/span&gt;&lt;/p&gt;" style="text;whiteSpace=wrap;html=1;fontColor=#FFFFFF;" vertex="1" parent="1">
          <mxGeometry x="330" y="429.84000000000003" width="100" height="40" as="geometry" />
        </mxCell>
        <mxCell id="2vBMD3IRPxABuUppxNbn-21575" value="Iprox" style="text;spacingTop=-5;fontStyle=0;fontSize=14;html=1;fontColor=#FFFFFF;" vertex="1" parent="1">
          <mxGeometry x="540" y="639.9977060838735" width="30" height="20" as="geometry" />
        </mxCell>
        <mxCell id="2vBMD3IRPxABuUppxNbn-21576" value="&lt;p style=&quot;line-height: normal ; margin-top: 0pt ; margin-bottom: 0pt ; margin-right: 0in ; text-align: center ; direction: ltr ; unicode-bidi: embed&quot;&gt;&lt;span style=&quot;font-size: 10.5pt ; font-family: &amp;quot;arial&amp;quot; ; font-variant: normal ; color: black ; text-transform: none ; font-weight: normal ; font-style: normal&quot;&gt;Divers&#xa;Open .Net …&lt;/span&gt;&lt;/p&gt;" style="text;whiteSpace=wrap;html=1;fontColor=#FFFFFF;" vertex="1" parent="1">
          <mxGeometry x="290" y="297.62" width="110" height="50" as="geometry" />
        </mxCell>
        <mxCell id="2vBMD3IRPxABuUppxNbn-21577" value="&lt;p style=&quot;line-height: normal ; margin-top: 0pt ; margin-bottom: 0pt ; margin-right: 0in ; text-align: center ; direction: ltr ; unicode-bidi: embed&quot;&gt;&lt;span style=&quot;font-size: 10.5pt ; font-family: &amp;quot;arial&amp;quot; ; font-variant: normal ; color: black ; text-transform: none ; font-weight: normal ; font-style: normal&quot;&gt;Divers&#xa;Open .Net …&lt;/span&gt;&lt;/p&gt;" style="text;whiteSpace=wrap;html=1;fontColor=#FFFFFF;" vertex="1" parent="1">
          <mxGeometry x="598.36" y="630" width="110" height="50" as="geometry" />
        </mxCell>
        <mxCell id="2vBMD3IRPxABuUppxNbn-21578" value="&lt;p style=&quot;line-height: normal ; margin-top: 0pt ; margin-bottom: 0pt ; margin-right: 0in ; text-align: center ; direction: ltr ; unicode-bidi: embed&quot;&gt;&lt;span style=&quot;font-size: 10.5pt ; font-family: &amp;#34;arial&amp;#34; ; color: black&quot;&gt;Atelier&lt;br/&gt;PMM&lt;/span&gt;&lt;/p&gt;" style="text;spacingTop=-5;fontStyle=0;fontSize=14;html=1;fontColor=#FFFFFF;" vertex="1" parent="1">
          <mxGeometry x="420.1399163537603" y="213.08034797028498" width="30" height="20" as="geometry" />
        </mxCell>
      </root>
    </mxGraphModel>
  </diagram>
  <diagram id="6vMw2qae2qoLd9zwoGh3" name="Page-2">
    <mxGraphModel dx="1422" dy="772" grid="1" gridSize="10" guides="1" tooltips="1" connect="1" arrows="1" fold="1" page="1" pageScale="1" pageWidth="1169" pageHeight="827" math="0" shadow="0">
      <root>
        <mxCell id="XQhfRmyCP4erzRiesd43-0" />
        <mxCell id="XQhfRmyCP4erzRiesd43-1" parent="XQhfRmyCP4erzRiesd43-0" />
      </root>
    </mxGraphModel>
  </diagram>
</mxfile>
